<svg fill="none" height="318" viewBox="0 0 552 318" width="552" xmlns="http://www.w3.org/2000/svg" transform="matrix(1, 0, 0, 1, 0, 0)"><path d="m387.962 166.359-35.199 16.66 31.152-23.295c-5.063-7.904-10.751-15.389-17.009-22.384l-152.654 37.945 137.89-52.604c-6.302-5.559-12.993-10.66-20.024-15.263l-232.609 37.47c-24.6972 30.885-38.1604 69.251-38.1794 108.797h350.1394c-.014-30.67-8.123-60.793-23.507-87.326z" fill="#f2f2f2"/><path d="m313.081 96.6015c-35.217-17.1296-75.157-21.9652-113.444-13.7347s-72.712 29.0522-97.78 59.1412c54.992-12.05 150.737-32.909 211.224-45.4065z" fill="#f2f2f2"/><path d="m281.344 99.9824c-5.992 17.7426-15.181 33.9086-33.907 33.9086s-32.852-15.211-33.907-33.9086c-1.348-23.8918 14.749-34.0078 33.907-33.9089 22.632.1169 41.018 12.8527 33.907 33.9089z" fill="#2f2e41"/><path d="m274.924 95.4716h-55.461v80.8294h55.461z" fill="#2f2e41"/><path d="m238.92 141.882s1.774 25.427-2.365 29.567c-4.139 4.139 36.661 7.687 36.07 2.957-.591-4.731-8.278-35.481-5.913-41.986s-27.792 9.462-27.792 9.462z" fill="#ffb8b8"/><path d="m238.92 141.882s1.774 25.427-2.365 29.567c-4.139 4.139 36.661 7.687 36.07 2.957-.591-4.731-8.278-35.481-5.913-41.986s-27.792 9.462-27.792 9.462z" fill="#000" opacity=".1"/><path d="m199.899 206.932-21.246 71.848-.852 2.894h-35.752c14.226-44.037 49.394-108.977 49.394-108.977l5.491-1.245z" fill="#1877f2"/><path d="m199.899 206.932-21.246 71.848-.852 2.894h-35.752c14.226-44.037 49.394-108.977 49.394-108.977l5.491-1.245z" fill="#000" opacity=".1"/><path d="m246.016 150.752c14.696 0 26.609-11.914 26.609-26.611 0-14.696-11.913-26.6101-26.609-26.6101s-26.609 11.9141-26.609 26.6101c0 14.697 11.913 26.611 26.609 26.611z" fill="#ffb8b8"/><path d="m274.399 166.718s-9.461 8.87-20.105 7.096c-10.643-1.774-15.111-14.718-15.111-14.718l-10.315 7.622s-2.956 21.288 10.644 23.654c13.6 2.365 33.113 2.957 37.252 0s-2.365-23.654-2.365-23.654z" fill="#3f3d56"/><path d="m306.923 198.053-1.697 5.515-23.956 78.106h-103.1c.22-.954.381-1.92.483-2.894 1.334-11.118.547-39.166.547-41.096 0-2.37 10.046-60.908 12.422-65.053.368-.501.852-.906 1.411-1.179 2.757-1.584 8.855-3.359 15.429-4.925.006-.006.006-.006.012-.006 3.674-.893 7.509-1.715 10.986-2.412h.006c3.412-.684 6.473-1.244 8.712-1.613 1.207-.232 2.425-.401 3.65-.507.548 0 .947.65 1.215 1.644.899 3.24.554 10.177.554 10.177.798.918 1.688 1.752 2.655 2.489 2.274 1.787 4.767 3.274 7.42 4.425 2.274.997 4.629 1.8 7.038 2.4h.006c2.533.642 5.111 1.09 7.712 1.34 2.12.244 4.263.202 6.371-.125h.012c6.27-1.036 8.569-4.931 9.641-8.04.19-.565.339-1.107.47-1.601 0-.006.006-.018.006-.024.393-1.519.56-2.585.977-2.567h.006c1.077.101 14.672 11.755 23.503 19.408 4.192 3.626 7.306 6.366 7.497 6.532z" fill="#1877f2"/><path d="m305.226 203.568-23.956 78.106h-9.712c.873-1.279 1.252-2.833 1.066-4.371-.31-2.179 6.437-24.386 12.933-45.05 5.907-18.776 11.606-36.26 11.606-36.26l5.615 2.656s1.007 1.899 2.448 4.919z" fill="#000" opacity=".1"/><path d="m322.298 274.338c-1.167.291-1.042 3.757-1.108 7.336h-45.887c.559-.691.975-1.485 1.227-2.337.251-.853.332-1.746.238-2.629-.303-2.091 4.222-23.642 8.789-44.455 3.591-16.46 7.211-32.461 8.468-38.029.31-1.346.476-2.072.476-2.072l.542.256.012.006 11.856 5.633.012.006s18.328 34.897 12.421 43.174c-5.919 8.278-5.919 8.278-3.555 12.423 2.364 4.132 8.867 20.098 6.509 20.688z" fill="#1877f2"/><path d="m247.437 73.2123c7.392 0 13.384-5.9928 13.384-13.3851 0-7.3924-5.992-13.3851-13.384-13.3851s-13.384 5.9927-13.384 13.3851c0 7.3923 5.992 13.3851 13.384 13.3851z" fill="#2f2e41"/><path d="m231.376 52.6885c0-3.3181 1.233-6.5178 3.459-8.9786 2.225-2.4607 5.286-4.007 8.587-4.3389-.44-.0438-.887-.0676-1.339-.0676-3.549 0-6.954 1.4102-9.464 3.9204s-3.92 5.9147-3.92 9.4647c0 3.5499 1.41 6.9545 3.92 9.4647 2.51 2.5101 5.915 3.9204 9.464 3.9204.452 0 .899-.0239 1.339-.0676-3.301-.332-6.362-1.8783-8.587-4.339-2.226-2.4607-3.459-5.6605-3.459-8.9785z" fill="#2f2e41"/><path d="m237.592 90.6142s-.28-1.5559-11.21 2.5432-17.482 34.3486-12.017 52.1116c2.203 7.158.411 12.319-2.513 15.93-10.974 13.552-6.654 33.905 9.33 40.874.451.197.911.391 1.381.583l6.831 4.099s-8.708-11.459-4.35-26.118c3.784-12.489 4.252-25.75 1.356-38.475-.5-2.146-1.068-4.359-1.713-6.617-5.465-19.129-2.807-16.92 16.321-36.0495 0 0 10.93 8.1985 20.494 12.2975s17.762 8.198 10.93 21.862c-6.831 13.663-23.227 25.961-12.296 43.723 10.93 17.763 12.296 10.931 10.93 17.763l-1.366 6.832 8.197-8.198-5.465 10.931s17.762 0 23.227-13.664l2.733 2.733s10.93-19.129-9.564-36.892c0 0-6.832-4.099 2.732-17.763 9.564-13.663 2.219-43.0403-10.078-48.5058-12.296-5.4654-43.89 0-43.89 0z" fill="#2f2e41"/><path d="m246.016 176.662-22.765 39.433h5.322v5.322l25.873-44.755z" fill="#3f3d56"/><path d="m543.068 255.472h-92.298v36.326h92.298z" fill="#f2f2f2"/><path d="m531.456 301.921h-69.074v5.955h69.074z" fill="#f2f2f2"/><path d="m531.456 312.64h-69.074v4.764h69.074z" fill="#f2f2f2"/><path d="m9.52751 9.52808c1.31549 0 2.38189-1.06646 2.38189-2.38202 0-1.31555-1.0664-2.38202-2.38189-2.38202-1.31548 0-2.38188 1.06647-2.38188 2.38202 0 1.31556 1.0664 2.38202 2.38188 2.38202z" fill="#1877f2"/><path d="m16.0777 9.52808c1.3155 0 2.3819-1.06646 2.3819-2.38202 0-1.31555-1.0664-2.38202-2.3819-2.38202s-2.3819 1.06647-2.3819 2.38202c0 1.31556 1.0664 2.38202 2.3819 2.38202z" fill="#1877f2"/><path d="m22.6278 9.52808c1.3155 0 2.3819-1.06646 2.3819-2.38202 0-1.31555-1.0664-2.38202-2.3819-2.38202-1.3154 0-2.3818 1.06647-2.3818 2.38202 0 1.31556 1.0664 2.38202 2.3818 2.38202z" fill="#1877f2"/><path d="m552 318h-552v-318h552zm-550.80906-1.191h549.61806v-315.61799h-549.61806z" fill="#2f2e41"/><path d="m551.405 11.9616h-550.809526v1.191h550.809526z" fill="#2f2e41"/><path d="m25.0097 22.0337h-17.86407v1.191h17.86407z" fill="#2f2e41"/><path d="m25.0097 26.7978h-17.86407v1.191h17.86407z" fill="#2f2e41"/><path d="m25.0097 31.5618h-17.86407v1.191h17.86407z" fill="#2f2e41"/><path d="m380.505 32.7528h-221.515v-10.7191h221.515zm-220.324-1.191h219.133v-8.3371h-219.133z" fill="#2f2e41"/><path d="m371.573 28.882c-.471 0-.932-.1397-1.323-.4014-.392-.2618-.697-.6338-.878-1.069-.18-.4353-.227-.9142-.135-1.3763s.318-.8865.652-1.2196c.333-.3332.757-.56 1.219-.6519.462-.092.941-.0448 1.376.1355.436.1803.808.4856 1.069.8773.262.3917.402.8523.402 1.3234-.001.6315-.252 1.237-.699 1.6836-.446.4466-1.052.6978-1.683.6984zm0-3.573c-.236 0-.466.0698-.662.2007s-.348.3169-.438.5345c-.091.2177-.114.4571-.068.6882.046.231.159.4432.326.6098.166.1665.378.28.609.3259.231.046.471.0224.689-.0677.217-.0902.403-.2428.534-.4387s.201-.4261.201-.6617c-.001-.3158-.126-.6185-.349-.8418-.224-.2232-.526-.3488-.842-.3492z" fill="#2f2e41"/><path d="m373.214 27.3692-.829.8548 2.346 2.2765.829-.8549z" fill="#2f2e41"/><path d="m513.89 32.7528h-11.909v-10.7191h11.909zm-10.719-1.191h9.528v-8.3371h-9.528z" fill="#2f2e41"/><path d="m528.777 32.7528h-11.91v-10.7191h11.91zm-10.719-1.191h9.528v-8.3371h-9.528z" fill="#2f2e41"/><path d="m543.663 32.7528h-11.909v-10.7191h11.909zm-10.718-1.191h9.527v-8.3371h-9.527z" fill="#2f2e41"/><path d="m406.706 288.82h-10.719v9.528h10.719z" fill="#ff6584"/><path d="m421.592 288.82h-10.718v9.528h10.718z" fill="#f2f2f2"/><path d="m436.479 288.82h-10.719v9.528h10.719z" fill="#f2f2f2"/><path d="m435.883 282.27h-406.1095v-231.0565h406.1095zm-404.9186-1.191h403.7286v-228.6745h-403.7286z" fill="#2f2e41"/><path d="m91.4722 261.055v5.595l-9.2934-5.672c-.0494-.029-.1057-.044-.1631-.045-.0573 0-.1138.015-.1636.043s-.0913.069-.1202.119-.0442.106-.0443.163v12.262c.0001.058.0154.114.0443.164.0289.049.0704.09.1202.119.0498.028.1063.043.1636.042.0574 0 .1137-.015.1631-.045l9.2934-5.672v5.595c.0001.043.0173.085.0477.115s.0717.048.1147.048h2.8826c.043 0 .0843-.018.1147-.048s.0476-.072.0477-.115v-12.668c-.0001-.043-.0173-.084-.0477-.114-.0304-.031-.0717-.048-.1147-.048h-2.8826c-.043 0-.0843.017-.1147.048-.0304.03-.0476.071-.0477.114z" fill="#3f3d56"/><path d="m66.6885 273.886h-2.5903c-.0429 0-.0855-.008-.1252-.024-.0398-.016-.076-.04-.1065-.07-.0306-.031-.0549-.067-.0716-.106-.0166-.04-.0253-.082-.0256-.125v-12.343c.0003-.043.009-.086.0256-.125.0167-.04.041-.076.0716-.106.0305-.03.0667-.054.1065-.07.0397-.016.0823-.024.1252-.024h2.5903c.0429 0 .0855.008.1253.024.0397.016.0759.04.1065.07.0305.03.0548.066.0715.106.0166.039.0253.082.0256.125v12.343c-.0003.043-.009.085-.0256.125-.0167.039-.041.075-.0715.106-.0306.03-.0668.054-.1065.07-.0398.016-.0824.024-.1253.024zm7.1456 0h-2.5903c-.0429 0-.0854-.008-.1252-.024s-.076-.04-.1065-.07c-.0306-.031-.0549-.067-.0715-.106-.0167-.04-.0254-.082-.0256-.125v-12.343c.0002-.043.0089-.086.0256-.125.0166-.04.0409-.076.0715-.106.0305-.03.0667-.054.1065-.07s.0823-.024.1252-.024h2.5903c.043 0 .0855.008.1253.024s.0759.04.1065.07c.0305.03.0548.066.0715.106.0166.039.0253.082.0256.125v12.343c-.0003.043-.009.085-.0256.125-.0167.039-.041.075-.0715.106-.0306.03-.0667.054-.1065.07s-.0823.024-.1253.024z" fill="#3f3d56"/><path d="m47.0421 261.23v12.319c-.0032.057.0091.114.0356.164.0265.051.0662.093.1148.123.0487.03.1045.047.1617.047.0571.001.1134-.013.1629-.042l9.7643-6.159c.0478-.032.087-.075.1141-.126s.0413-.107.0413-.165c0-.057-.0142-.114-.0413-.164-.0271-.051-.0663-.094-.1141-.126l-9.7643-6.159c-.049-.03-.1052-.045-.1623-.045-.0572 0-.1132.016-.1621.046-.0488.029-.0887.072-.1152.122-.0266.051-.0388.108-.0354.165z" fill="#1877f2"/><path d="m416.531 252.494h-367.4048v2.382h367.4048z" fill="#2f2e41"/><path d="m113.139 252.494h-64.0128v2.382h64.0128z" fill="#1877f2"/><path d="m198.887 290.011h-168.5181v6.551h168.5181z" fill="#f2f2f2"/><path d="m67.288 304.899h-36.9191v6.55h36.9191z" fill="#f2f2f2"/><path d="m543.068 63.7191h-92.298v36.3259h92.298z" fill="#f2f2f2"/><path d="m531.456 110.169h-69.074v5.955h69.074z" fill="#f2f2f2"/><path d="m531.456 120.888h-69.074v5.955h69.074z" fill="#f2f2f2"/><path d="m531.456 131.607h-69.074v5.955h69.074z" fill="#f2f2f2"/><path d="m543.068 159.596h-92.298v36.325h92.298z" fill="#f2f2f2"/><path d="m531.456 206.045h-69.074v5.955h69.074z" fill="#f2f2f2"/><path d="m531.456 216.764h-69.074v5.955h69.074z" fill="#f2f2f2"/><path d="m531.456 227.483h-69.074v5.955h69.074z" fill="#f2f2f2"/><path d="m394.119 253.584-1.229-.928c-4.371-3.361-7.253-5.538-7.515-8.542-.06-.57-.005-1.147.161-1.696.167-.549.443-1.059.81-1.499.367-.441.82-.803 1.329-1.066.51-.263 1.068-.421 1.64-.464.675-.055 1.353.037 1.989.27.635.233 1.213.602 1.691 1.081.389-.555.893-1.018 1.478-1.358.586-.34 1.238-.549 1.912-.612.571-.056 1.148.002 1.695.173.548.17 1.056.448 1.495.818.438.37.798.825 1.057 1.336.26.512.414 1.07.454 1.643.263 3.003-2.197 5.648-5.918 9.716z" fill="#ff6584"/><path d="m408.665 238.275-.674-1.385c-2.368-4.979-3.947-8.228-2.817-11.023.205-.536.516-1.025.914-1.438s.875-.742 1.402-.968c.528-.226 1.095-.343 1.669-.346.573-.002 1.142.11 1.671.331.626.257 1.189.647 1.649 1.144.461.496.808 1.087 1.017 1.731.598-.318 1.257-.502 1.933-.539s1.352.073 1.981.324c.535.208 1.022.522 1.432.923.411.4.738.879.96 1.408.223.529.337 1.097.336 1.67-.001.574-.117 1.142-.341 1.67-1.13 2.795-4.523 4.034-9.685 5.97z" fill="#ff6584"/><path d="m402.711 278.174-.674-1.385c-2.368-4.979-3.948-8.228-2.818-11.023.206-.536.517-1.025.914-1.438.398-.413.875-.742 1.402-.968.528-.226 1.095-.344 1.669-.346.574-.003 1.142.11 1.671.331.627.257 1.189.647 1.65 1.144.46.496.807 1.087 1.016 1.731.598-.318 1.258-.502 1.934-.539s1.352.073 1.981.323c.534.209 1.021.523 1.432.924.411.4.737.879.959 1.408.223.528.337 1.096.336 1.67s-.117 1.142-.341 1.67c-1.13 2.795-4.522 4.034-9.685 5.97z" fill="#ff6584"/><rect fill="#2b2c28" fill-opacity=".61" height="21" rx="1" width="278" x="91" y="224"/><g fill="#fff"><path d="m110.615 238.228c-1.089.515-2.195.772-3.32.772-1.46 0-2.633-.437-3.518-1.31-.886-.874-1.328-2.046-1.328-3.518 0-1.544.448-2.74 1.346-3.59.897-.85 2.076-1.274 3.536-1.274 1.089 0 2.184.251 3.284.754v2.476h-1.077v-1.794c-.67-.3-1.435-.449-2.297-.449-1.185 0-2.088.335-2.71 1.005-.61.658-.916 1.585-.916 2.782 0 1.221.329 2.184.988 2.89.67.694 1.603 1.041 2.8 1.041.67 0 1.382-.126 2.135-.377v-2.405h-1.076v-.987h3.23v.987h-1.077z" fill="#000000"/><path d="m116.758 238.013c.778 0 1.544-.245 2.297-.736v1.059c-.777.443-1.591.664-2.441.664-1.076 0-1.926-.335-2.548-1.005-.622-.682-.934-1.568-.934-2.657 0-1.22.306-2.171.916-2.853.622-.682 1.436-1.023 2.441-1.023.873 0 1.549.299 2.028.897.479.586.718 1.406.718 2.459v.556h-4.936c.036.826.245 1.472.628 1.939.395.466 1.005.7 1.831.7zm1.4-3.626c-.06-1.292-.658-1.938-1.795-1.938-.598 0-1.065.173-1.4.52-.323.335-.526.808-.61 1.418z" fill="#000000"/><path d="m120.307 238.013h1.077v-5.564h-1.077v-.987h2.1l.053 1.059h.018c.682-.706 1.472-1.059 2.37-1.059.718 0 1.244.203 1.579.61.347.407.521.969.521 1.687v4.254h1.077v.987h-3.231v-.987h1.077v-4.128c0-.539-.12-.91-.359-1.113-.24-.216-.557-.323-.952-.323-.801 0-1.501.383-2.1 1.148v4.416h1.077v.987h-3.23z" fill="#000000"/><path d="m132.905 238.013c.777 0 1.543-.245 2.297-.736v1.059c-.778.443-1.591.664-2.441.664-1.077 0-1.927-.335-2.549-1.005-.622-.682-.933-1.568-.933-2.657 0-1.22.305-2.171.915-2.853.623-.682 1.436-1.023 2.441-1.023.874 0 1.55.299 2.029.897.478.586.717 1.406.717 2.459v.556h-4.935c.035.826.245 1.472.628 1.939.395.466 1.005.7 1.831.7zm1.4-3.626c-.06-1.292-.659-1.938-1.795-1.938-.599 0-1.065.173-1.4.52-.323.335-.527.808-.611 1.418z" fill="#000000"/><path d="m141.12 232.7c-.251-.048-.497-.072-.736-.072-.814 0-1.406.377-1.777 1.131v4.254h1.077v.987h-3.231v-.987h1.077v-5.564h-1.077v-.987h2.082l.072 1.094h.036c.467-.729 1.107-1.094 1.92-1.094.18 0 .365.017.557.053z" fill="#000000"/><path d="m142.199 232.09c.897-.419 1.813-.628 2.746-.628.814 0 1.424.185 1.831.556.419.371.628.969.628 1.795v4.2h1.077v.987h-2.082l-.072-1.095h-.054c-.646.73-1.412 1.095-2.297 1.095-.718 0-1.269-.179-1.652-.538-.382-.371-.574-.88-.574-1.526 0-1.604 1.274-2.405 3.823-2.405h.754v-.754c0-.431-.126-.76-.377-.987-.239-.228-.628-.341-1.167-.341-.789 0-1.651.209-2.584.628zm3.195 3.428c-1.652 0-2.477.449-2.477 1.346 0 .383.107.67.323.862.227.191.55.287.969.287.766 0 1.472-.365 2.118-1.095v-1.4z" fill="#000000"/><path d="m152.478 239c-.586 0-1.071-.144-1.454-.431s-.574-.73-.574-1.328v-4.792h-1.077v-.987h1.077v-1.957l1.077-.197v2.154h2.333v.987h-2.333v4.613c0 .335.108.58.323.735.215.144.479.216.79.216.395 0 .801-.108 1.22-.323v.951c-.443.239-.903.359-1.382.359z" fill="#000000"/><path d="m158.744 238.013c.778 0 1.544-.245 2.298-.736v1.059c-.778.443-1.592.664-2.441.664-1.077 0-1.927-.335-2.549-1.005-.622-.682-.933-1.568-.933-2.657 0-1.22.305-2.171.915-2.853.622-.682 1.436-1.023 2.441-1.023.874 0 1.55.299 2.028.897.479.586.718 1.406.718 2.459v.556h-4.936c.036.826.246 1.472.629 1.939.394.466 1.005.7 1.83.7zm1.4-3.626c-.059-1.292-.658-1.938-1.794-1.938-.599 0-1.065.173-1.4.52-.324.335-.527.808-.611 1.418z" fill="#000000"/><path d="m166.058 233.526c0-.658.269-1.167.808-1.526.55-.359 1.262-.538 2.136-.538.741 0 1.525.131 2.351.394v1.759h-1.077v-1.023c-.419-.107-.874-.161-1.364-.161-.479 0-.88.078-1.203.233-.323.156-.484.395-.484.718 0 .192.036.353.107.485.084.119.204.227.359.323.156.084.353.167.593.251.239.084.514.174.825.269.299.096.599.198.898.305.299.108.568.24.807.395.24.156.431.353.575.593.155.227.233.514.233.861 0 .67-.281 1.197-.843 1.58-.563.371-1.305.556-2.226.556-.826 0-1.627-.162-2.405-.485v-1.669h1.077v1.023c.442.108.915.162 1.418.162.502 0 .927-.078 1.274-.234.359-.167.538-.424.538-.771 0-.371-.161-.641-.484-.808-.311-.168-.754-.335-1.328-.503-.3-.083-.605-.179-.916-.287-.299-.107-.574-.239-.825-.395-.252-.167-.455-.371-.611-.61-.155-.239-.233-.538-.233-.897z" fill="#000000"/><path d="m178.437 232.449h-1.077v-.987h2.154v6.551h1.077v.987h-2.082l-.072-1.041h-.036c-.574.694-1.31 1.041-2.207 1.041-.73 0-1.287-.185-1.669-.556-.383-.371-.575-.904-.575-1.598v-4.397h-1.077v-.987h2.154v5.133c0 .562.132.939.395 1.131.263.191.604.287 1.023.287.814 0 1.478-.335 1.992-1.005z" fill="#000000"/><path d="m183.82 237.905c.431.096.861.144 1.292.144.874 0 1.52-.24 1.939-.718.418-.479.628-1.185.628-2.118 0-.85-.186-1.52-.557-2.01-.359-.503-.861-.754-1.507-.754s-1.245.245-1.795.736zm0-5.654h.018c.646-.526 1.358-.789 2.136-.789.873 0 1.567.341 2.082 1.023.526.682.789 1.537.789 2.566 0 1.161-.317 2.112-.951 2.854-.622.73-1.525 1.095-2.71 1.095-.73 0-1.544-.114-2.441-.341v-9.441h-1.077v-.987h2.154z" fill="#000000"/><path d="m193.384 239c-.586 0-1.071-.144-1.453-.431-.383-.287-.575-.73-.575-1.328v-4.792h-1.077v-.987h1.077v-1.957l1.077-.197v2.154h2.333v.987h-2.333v4.613c0 .335.108.58.323.735.216.144.479.216.79.216.395 0 .802-.108 1.22-.323v.951c-.442.239-.903.359-1.382.359z" fill="#000000"/><path d="m195.666 238.013h1.077v-5.564h-1.077v-.987h2.154v6.551h1.077v.987h-3.231zm.718-8.436c0-.275.072-.491.215-.646.156-.156.353-.234.593-.234.239 0 .43.078.574.234.156.155.233.353.233.592 0 .263-.077.473-.233.628-.144.156-.335.234-.574.234-.24 0-.437-.078-.593-.234-.143-.155-.215-.347-.215-.574z" fill="#000000"/><path d="m203.078 239c-.587 0-1.071-.144-1.454-.431s-.574-.73-.574-1.328v-4.792h-1.077v-.987h1.077v-1.957l1.077-.197v2.154h2.333v.987h-2.333v4.613c0 .335.107.58.323.735.215.144.478.216.789.216.395 0 .802-.108 1.221-.323v.951c-.443.239-.904.359-1.382.359z" fill="#000000"/><path d="m205.359 238.013h1.077v-8.795h-1.077v-.987h2.154v9.782h1.077v.987h-3.231z" fill="#000000"/><path d="m213.651 238.013c.777 0 1.543-.245 2.297-.736v1.059c-.778.443-1.591.664-2.441.664-1.077 0-1.926-.335-2.549-1.005-.622-.682-.933-1.568-.933-2.657 0-1.22.305-2.171.915-2.853.623-.682 1.436-1.023 2.441-1.023.874 0 1.55.299 2.029.897.478.586.718 1.406.718 2.459v.556h-4.936c.036.826.245 1.472.628 1.939.395.466 1.005.7 1.831.7zm1.4-3.626c-.06-1.292-.658-1.938-1.795-1.938-.599 0-1.065.173-1.4.52-.323.335-.527.808-.611 1.418z" fill="#000000"/><path d="m217.738 233.526c0-.658.269-1.167.807-1.526.551-.359 1.263-.538 2.136-.538.742 0 1.526.131 2.352.394v1.759h-1.077v-1.023c-.419-.107-.874-.161-1.364-.161-.479 0-.88.078-1.203.233-.323.156-.485.395-.485.718 0 .192.036.353.108.485.084.119.203.227.359.323.156.084.353.167.592.251.24.084.515.174.826.269.299.096.598.198.897.305.3.108.569.24.808.395.239.156.431.353.574.593.156.227.234.514.234.861 0 .67-.281 1.197-.844 1.58-.562.371-1.304.556-2.225.556-.826 0-1.628-.162-2.406-.485v-1.669h1.077v1.023c.443.108.916.162 1.418.162.503 0 .928-.078 1.275-.234.359-.167.538-.424.538-.771 0-.371-.161-.641-.485-.808-.311-.168-.753-.335-1.328-.503-.299-.083-.604-.179-.915-.287-.299-.107-.574-.239-.826-.395-.251-.167-.454-.371-.61-.61s-.233-.538-.233-.897z" fill="#000000"/><path d="m227.959 238.013h1.077v-5.564h-1.077v-.987h2.154v6.551h1.077v.987h-3.231zm.718-8.436c0-.275.072-.491.215-.646.156-.156.353-.234.593-.234.239 0 .43.078.574.234.156.155.233.353.233.592 0 .263-.077.473-.233.628-.144.156-.335.234-.574.234-.24 0-.437-.078-.593-.234-.143-.155-.215-.347-.215-.574z" fill="#000000"/><path d="m232.266 238.013h1.077v-5.564h-1.077v-.987h2.1l.053 1.059h.018c.682-.706 1.472-1.059 2.37-1.059.718 0 1.244.203 1.579.61.347.407.521.969.521 1.687v4.254h1.077v.987h-3.231v-.987h1.077v-4.128c0-.539-.12-.91-.359-1.113-.24-.216-.557-.323-.952-.323-.801 0-1.501.383-2.1 1.148v4.416h1.077v.987h-3.23z" fill="#000000"/><path d="m244.105 238.013h1.077v-5.564h-1.077v-.987h2.083l.071 1.023h.036c.634-.682 1.394-1.023 2.28-1.023.945 0 1.585.394 1.92 1.184h.054c.67-.79 1.478-1.184 2.423-1.184.682 0 1.197.191 1.544.574.359.383.538.921.538 1.615v4.362h1.077v.987h-3.231v-.987h1.077v-4.075c0-.526-.113-.903-.341-1.13-.227-.24-.55-.359-.969-.359-.754 0-1.424.383-2.01 1.148v4.416h1.077v.987h-3.231v-.987h1.077v-4.075c0-.526-.114-.903-.341-1.13-.228-.24-.551-.359-.969-.359-.754 0-1.424.383-2.011 1.148v4.416h1.077v.987h-3.231z" fill="#000000"/><path d="m262.41 232.449h-1.077v-.987h2.154v6.551h1.077v.987h-2.082l-.072-1.041h-.036c-.574.694-1.31 1.041-2.208 1.041-.73 0-1.286-.185-1.669-.556s-.574-.904-.574-1.598v-4.397h-1.077v-.987h2.154v5.133c0 .562.131.939.395 1.131.263.191.604.287 1.023.287.813 0 1.477-.335 1.992-1.005z" fill="#000000"/><path d="m265.639 238.013h1.077v-8.795h-1.077v-.987h2.154v9.782h1.076v.987h-3.23z" fill="#000000"/><path d="m273.05 239c-.586 0-1.071-.144-1.453-.431-.383-.287-.575-.73-.575-1.328v-4.792h-1.077v-.987h1.077v-1.957l1.077-.197v2.154h2.333v.987h-2.333v4.613c0 .335.108.58.323.735.216.144.479.216.79.216.395 0 .802-.108 1.22-.323v.951c-.442.239-.903.359-1.382.359z" fill="#000000"/><path d="m275.332 238.013h1.077v-5.564h-1.077v-.987h2.154v6.551h1.077v.987h-3.231zm.718-8.436c0-.275.072-.491.215-.646.156-.156.353-.234.593-.234.239 0 .43.078.574.234.156.155.233.353.233.592 0 .263-.077.473-.233.628-.144.156-.335.234-.574.234-.24 0-.437-.078-.593-.234-.143-.155-.215-.347-.215-.574z" fill="#000000"/><path d="m282.869 241.244v.987h-3.23v-.987h1.077v-8.795h-1.077v-.987h2.082l.072.861h.071c.623-.574 1.305-.861 2.046-.861.862 0 1.562.341 2.1 1.023.539.67.808 1.537.808 2.602 0 1.161-.317 2.106-.951 2.836-.622.718-1.424 1.077-2.405 1.077-.563 0-1.107-.114-1.634-.341l-.035.018v2.567zm-1.076-3.536c.442.203.951.305 1.525.305.742 0 1.316-.216 1.723-.646.407-.443.61-1.143.61-2.1 0-.898-.185-1.592-.556-2.082-.359-.491-.861-.736-1.508-.736-.634 0-1.232.305-1.794.915z" fill="#000000"/><path d="m288.252 238.013h1.077v-8.795h-1.077v-.987h2.154v9.782h1.077v.987h-3.231z" fill="#000000"/><path d="m296.543 238.013c.778 0 1.544-.245 2.298-.736v1.059c-.778.443-1.592.664-2.441.664-1.077 0-1.927-.335-2.549-1.005-.622-.682-.933-1.568-.933-2.657 0-1.22.305-2.171.915-2.853.622-.682 1.436-1.023 2.441-1.023.873 0 1.55.299 2.028.897.479.586.718 1.406.718 2.459v.556h-4.936c.036.826.246 1.472.628 1.939.395.466 1.006.7 1.831.7zm1.4-3.626c-.06-1.292-.658-1.938-1.795-1.938-.598 0-1.065.173-1.4.52-.323.335-.526.808-.61 1.418z" fill="#000000"/><path d="m308.703 230.385h-.987v-1.059c-.24-.072-.497-.108-.772-.108-.515 0-.891.144-1.131.431-.227.287-.341.7-.341 1.238v.575h1.795v.987h-1.795v5.564h1.077v.987h-3.231v-.987h1.077v-5.564h-1.077v-.987h1.077v-.395c0-.958.222-1.67.664-2.136.455-.467 1.077-.7 1.867-.7.61 0 1.203.125 1.777.377z" fill="#000000"/><path d="m307.984 235.267c0-1.173.329-2.1.987-2.782s1.496-1.023 2.513-1.023c1.005 0 1.807.323 2.405.969.61.634.915 1.525.915 2.674 0 1.197-.323 2.148-.969 2.854-.634.694-1.466 1.041-2.495 1.041-1.005 0-1.818-.335-2.441-1.005-.61-.67-.915-1.58-.915-2.728zm1.167-.162c0 .957.197 1.681.592 2.172s.963.736 1.705.736c.706 0 1.245-.234 1.615-.7.383-.467.575-1.161.575-2.082 0-.934-.192-1.628-.575-2.082-.37-.467-.939-.7-1.705-.7-.682 0-1.22.215-1.615.646-.395.419-.592 1.089-.592 2.01z" fill="#000000"/><path d="m320.905 232.7c-.251-.048-.497-.072-.736-.072-.814 0-1.406.377-1.777 1.131v4.254h1.077v.987h-3.231v-.987h1.077v-5.564h-1.077v-.987h2.082l.072 1.094h.036c.467-.729 1.107-1.094 1.921-1.094.179 0 .364.017.556.053z" fill="#000000"/><path d="m321.625 238.013h1.077v-5.564h-1.077v-.987h2.082l.072 1.023h.036c.634-.682 1.394-1.023 2.279-1.023.946 0 1.586.394 1.921 1.184h.054c.67-.79 1.477-1.184 2.423-1.184.682 0 1.196.191 1.543.574.359.383.539.921.539 1.615v4.362h1.077v.987h-3.231v-.987h1.077v-4.075c0-.526-.114-.903-.341-1.13-.228-.24-.551-.359-.969-.359-.754 0-1.424.383-2.011 1.148v4.416h1.077v.987h-3.231v-.987h1.077v-4.075c0-.526-.113-.903-.341-1.13-.227-.24-.55-.359-.969-.359-.754 0-1.424.383-2.01 1.148v4.416h1.077v.987h-3.231z" fill="#000000"/><path d="m334.904 232.09c.897-.419 1.813-.628 2.746-.628.814 0 1.424.185 1.831.556.419.371.628.969.628 1.795v4.2h1.077v.987h-2.082l-.072-1.095h-.054c-.646.73-1.412 1.095-2.297 1.095-.718 0-1.269-.179-1.651-.538-.383-.371-.575-.88-.575-1.526 0-1.604 1.275-2.405 3.823-2.405h.754v-.754c0-.431-.126-.76-.377-.987-.239-.228-.628-.341-1.166-.341-.79 0-1.652.209-2.585.628zm3.195 3.428c-1.652 0-2.477.449-2.477 1.346 0 .383.108.67.323.862.227.191.55.287.969.287.766 0 1.472-.365 2.118-1.095v-1.4z" fill="#000000"/><path d="m345.183 239c-.586 0-1.071-.144-1.454-.431s-.574-.73-.574-1.328v-4.792h-1.077v-.987h1.077v-1.957l1.077-.197v2.154h2.333v.987h-2.333v4.613c0 .335.108.58.323.735.215.144.479.216.79.216.395 0 .802-.108 1.22-.323v.951c-.442.239-.903.359-1.382.359z" fill="#000000"/><path d="m348.003 233.526c0-.658.27-1.167.808-1.526.55-.359 1.262-.538 2.136-.538.742 0 1.526.131 2.351.394v1.759h-1.077v-1.023c-.419-.107-.873-.161-1.364-.161-.478 0-.879.078-1.202.233-.323.156-.485.395-.485.718 0 .192.036.353.108.485.083.119.203.227.359.323.155.084.353.167.592.251s.514.174.826.269c.299.096.598.198.897.305.299.108.568.24.808.395.239.156.43.353.574.593.156.227.233.514.233.861 0 .67-.281 1.197-.843 1.58-.563.371-1.304.556-2.226.556-.825 0-1.627-.162-2.405-.485v-1.669h1.077v1.023c.443.108.915.162 1.418.162.502 0 .927-.078 1.274-.234.359-.167.539-.424.539-.771 0-.371-.162-.641-.485-.808-.311-.168-.754-.335-1.328-.503-.299-.083-.604-.179-.915-.287-.3-.107-.575-.239-.826-.395-.251-.167-.455-.371-.61-.61-.156-.239-.234-.538-.234-.897z" fill="#000000"/></g></svg>